<?xml version="1.0" encoding="utf-8"?><!DOCTYPE svg PUBLIC "-//W3C//DTD SVG 1.1//EN" "http://www.w3.org/Graphics/SVG/1.1/DTD/svg11.dtd"><svg version="1.1" xmlns="http://www.w3.org/2000/svg" xmlns:xlink="http://www.w3.org/1999/xlink" x="0px" y="0px" viewBox="1.297 18.103 100 62.313" enable-background="new 1.297 18.103 100 62.313" xml:space="preserve"><path d="M91.601,63.521c-1.444-2.738-3.958-4.827-6.986-5.705l-0.121-23.805c-2.129,0-4.263-0.036-6.39,0.027
	c-0.064,0.784-0.127,1.569-0.187,2.354c-8.835,6.422-17.665,12.844-26.491,19.276c-8.974-6.522-17.9-13.116-26.906-19.596
	c0.667-0.925,1.185-1.948,1.642-2.996c-6.499-5.011-13.053-9.958-19.555-14.973c-4.051,2.959-6.17,8.403-4.98,13.3
	c0.979,4.907,5.079,9.056,10.021,9.971c2.634,0.664,5.443,0.135,7.869-0.991c0.921,1.135,2.228,1.839,3.374,2.724
	c7.721,5.672,15.514,11.266,23.199,16.988c-0.967,0.688-2.798,1.945-4.958,3.425h-7.958c-1.851-3.893-5.82-6.584-10.416-6.584
	c-4.595,0-8.564,2.691-10.415,6.584H1.764v9.479h10.395c1.761,4.112,5.844,6.991,10.599,6.991c4.756,0,8.838-2.879,10.6-6.991
	h33.319l3.953,0.01c1.659,4.332,5.854,7.407,10.768,7.407c4.916,0,9.114-3.082,10.771-7.417h9.129v-9.479H91.601z M22.758,72.246
	c-2.087,0-3.781-1.693-3.781-3.781c0-2.09,1.693-3.783,3.781-3.783c2.088,0,3.782,1.693,3.782,3.783
	C26.54,70.553,24.846,72.246,22.758,72.246z M71.677,62.69c-4.011,0.001-8.02,0.005-12.029-0.011c-1.01-0.946-2.024-1.88-3.03-2.822
	c7.17-5.119,14.355-10.229,21.535-15.339c0.017,4.427,0.043,8.855,0.074,13.283C75.493,58.582,73.172,60.348,71.677,62.69z
	 M81.397,72.669c-2.089,0-3.782-1.692-3.782-3.781c0-2.09,1.693-3.782,3.782-3.782s3.781,1.692,3.781,3.782
	C85.179,70.977,83.486,72.669,81.397,72.669z"></path></svg>